<svg width="100" height="100" viewBox="0 0 100 100" fill="none" xmlns="http://www.w3.org/2000/svg">
<path d="M10.25 51.388C9.91666 50.49 9.91666 49.5022 10.25 48.6042C13.4966 40.732 19.0076 34.0011 26.0843 29.2648C33.161 24.5284 41.4846 22 50 22C58.5154 22 66.839 24.5284 73.9157 29.2648C80.9924 34.0011 86.5034 40.732 89.75 48.6042C90.0833 49.5022 90.0833 50.49 89.75 51.388C86.5034 59.2602 80.9924 65.9912 73.9157 70.7275C66.839 75.4638 58.5154 77.9922 50 77.9922C41.4846 77.9922 33.161 75.4638 26.0843 70.7275C19.0076 65.9912 13.4966 59.2602 10.25 51.388Z" stroke="#909090" stroke-width="5" stroke-linecap="round" stroke-linejoin="round"/>
<path d="M49.9999 61.9956C56.627 61.9956 61.9993 56.6233 61.9993 49.9962C61.9993 43.3691 56.627 37.9968 49.9999 37.9968C43.3729 37.9968 38.0005 43.3691 38.0005 49.9962C38.0005 56.6233 43.3729 61.9956 49.9999 61.9956Z" stroke="#909090" stroke-width="5" stroke-linecap="round" stroke-linejoin="round"/>
</svg>
