<svg width="1024" height="1024" viewBox="0 0 1024 1024" fill="#909090" xmlns="http://www.w3.org/2000/svg">
<path d="M499.399 830.25C434.399 830.25 382.399 817.25 343.399 791.25C304.899 765.25 285.649 727.25 285.649 677.25C285.649 672.25 286.149 664.75 287.149 654.75H464.149C462.649 670.25 464.899 681.75 470.899 689.25C477.399 696.75 487.899 700.5 502.399 700.5C511.399 700.5 518.899 698.25 524.899 693.75C530.899 689.25 533.899 682.75 533.899 674.25C533.899 662.25 527.899 652.25 515.899 644.25C504.399 636.25 485.649 626.75 459.649 615.75C431.149 603.75 407.649 592.25 389.149 581.25C371.149 570.25 355.399 555.25 341.899 536.25C328.399 517.25 321.649 493.5 321.649 465C321.649 427.5 330.899 395.25 349.399 368.25C368.399 340.75 394.649 320 428.149 306C461.649 292 499.899 285 542.899 285C581.399 285 615.649 291 645.649 303C676.149 315 699.899 332.5 716.899 355.5C734.399 378 743.149 404.75 743.149 435.75C743.149 439.75 742.649 446.75 741.649 456.75H562.399C563.399 450.75 563.899 446.75 563.899 444.75C563.899 435.25 561.149 428 555.649 423C550.149 417.5 542.649 414.75 533.149 414.75C524.649 414.75 517.649 417.25 512.149 422.25C506.649 427.25 503.899 433.75 503.899 441.75C503.899 452.75 509.649 462.5 521.149 471C532.649 479 550.899 489 575.899 501C604.399 514.5 627.899 527.25 646.399 539.25C665.399 551.25 681.649 567.25 695.149 587.25C708.649 606.75 715.399 630.75 715.399 659.25C715.399 691.75 706.649 721 689.149 747C672.149 773 647.399 793.5 614.899 808.5C582.399 823 543.899 830.25 499.399 830.25Z" fill="#909090"/>
</svg>
