<svg width="100" height="100" viewBox="0 0 100 100" fill="none" xmlns="http://www.w3.org/2000/svg">
    <path opacity="0.5" d="M90 50C90 72.096 72.092 90 50 90C27.908 90 10 72.096 10 50C10 27.912 27.908 10 50 10C72.092 10 90 27.912 90 50Z" fill="#909090"/>
    <path fill-rule="evenodd" clip-rule="evenodd" d="M50 90C72.092 90 90 72.096 90 50C90 27.912 72.092 10 50 10C27.908 10 10 27.912 10 50C10 72.096 27.908 90 50 90ZM49.75 59C51.8157 59 53.5 57.0891 53.5 54.7455V33.2545C53.5 30.9109 51.8157 29 49.75 29C47.6843 29 46 30.9109 46 33.2545V54.7455C46 57.0891 47.6843 59 49.75 59ZM49.7179 64C47.6709 64 46 65.6843 46 67.75C46 69.8157 47.688 71.5 49.7607 71.5C51.8248 71.5 53.5 69.8157 53.5 67.75C53.5 65.6843 51.8248 64 49.7179 64Z" fill="#909090"/>
</svg>
