<svg width="100" height="100" viewBox="0 0 100 100" fill="#909090" xmlns="http://www.w3.org/2000/svg">
    <path opacity="0.5" d="M76.6699 76.4043C79.9873 76.4044 82.7051 79.0073 82.7051 82.2217C82.7049 85.3977 79.9872 87.9999 76.6699 88C73.3126 88 70.5949 85.3977 70.5947 82.2217C70.5947 79.0072 73.3125 76.4043 76.6699 76.4043ZM31.7051 76.4043C35.0224 76.4043 37.74 79.0064 37.7402 82.2207C37.7402 85.3969 35.0225 87.999 31.7051 87.999C28.3477 87.999 25.6299 85.3969 25.6299 82.2207C25.6301 79.0064 28.3478 76.4043 31.7051 76.4043Z" fill="#909090"/>
    <path  d="M82.7063 27.7304C85.1444 27.7304 86.7432 28.534 88.3419 30.2944C89.9407 32.0547 90.2204 34.5803 89.8607 36.8725L86.0637 61.976C85.3443 66.8016 81.0276 70.3566 75.9516 70.3566H32.3456C27.0297 70.3566 22.6331 66.4533 22.1935 61.4058L18.5163 19.6904L12.481 18.6955C10.8823 18.4276 9.76315 16.9352 10.0429 15.4045C10.3227 13.8355 11.8815 12.8023 13.5202 13.0319L23.0528 14.4095C24.4117 14.6429 25.411 15.7106 25.5309 17.0117L26.2903 25.5836C26.4102 26.812 27.4494 27.7304 28.7284 27.7304H82.7063ZM58.4859 47.6254H69.5573C71.236 47.6254 72.555 46.3243 72.555 44.7553C72.555 43.1481 71.236 41.8852 69.5573 41.8852H58.4859C56.8073 41.8852 55.4883 43.1481 55.4883 44.7553C55.4883 46.3243 56.8073 47.6254 58.4859 47.6254Z" fill="#909090"/>
</svg>
