<svg width="1024" height="1024" viewBox="0 0 1024 1024" fill="#0070F3" xmlns="http://www.w3.org/2000/svg">
         <path d="M494.796 877.168C406.049 877.168 335.052 859.419 281.804 823.92C229.239 788.421 202.956 736.539 202.956 668.272C202.956 661.445 203.639 651.205 205.004 637.552H446.668C444.62 658.715 447.692 674.416 455.884 684.656C464.759 694.896 479.095 700.016 498.892 700.016C511.18 700.016 521.42 696.944 529.612 690.8C537.804 684.656 541.9 675.781 541.9 664.176C541.9 647.792 533.708 634.139 517.324 623.216C501.623 612.293 476.023 599.323 440.524 584.304C401.612 567.92 369.527 552.219 344.268 537.2C319.692 522.181 298.188 501.701 279.756 475.76C261.324 449.819 252.108 417.392 252.108 378.48C252.108 327.28 264.737 283.248 289.996 246.384C315.937 208.837 351.777 180.507 397.516 161.392C443.255 142.277 495.479 132.72 554.188 132.72C606.753 132.72 653.516 140.912 694.476 157.296C736.119 173.68 768.545 197.573 791.756 228.976C815.649 259.696 827.596 296.219 827.596 338.544C827.596 344.005 826.913 353.563 825.548 367.216H580.812C582.177 359.024 582.86 353.563 582.86 350.832C582.86 337.861 579.105 327.963 571.596 321.136C564.087 313.627 553.847 309.872 540.876 309.872C529.271 309.872 519.713 313.285 512.204 320.112C504.695 326.939 500.94 335.813 500.94 346.736C500.94 361.755 508.791 375.067 524.492 386.672C540.193 397.595 565.111 411.248 599.244 427.632C638.156 446.064 670.241 463.472 695.5 479.856C721.441 496.24 743.628 518.085 762.06 545.392C780.492 572.016 789.708 604.784 789.708 643.696C789.708 688.069 777.761 728.005 753.868 763.504C730.657 799.003 696.865 826.992 652.492 847.472C608.119 867.269 555.553 877.168 494.796 877.168Z" fill="#0070F3"/>
</svg>
